HIERARCHY
ROOT Hips
{
	OFFSET 0.00000 0.00000 0.00000
	CHANNELS 6 Xposition Yposition Zposition Zrotation Yrotation Xrotation 
	JOINT LHipJoint
	{
		OFFSET 0 0 0
		CHANNELS 3 Zrotation Yrotation Xrotation
		JOINT LeftUpLeg
		{
			OFFSET 3.13874 -1.57224 1.49786
			CHANNELS 3 Zrotation Yrotation Xrotation
			JOINT LeftLeg
			{
				OFFSET 2.10955 -5.79594 0.00000
				CHANNELS 3 Zrotation Yrotation Xrotation
				JOINT LeftFoot
				{
					OFFSET 2.41843 -6.64458 0.00000
					CHANNELS 3 Zrotation Yrotation Xrotation
					JOINT LeftToeBase
					{
						OFFSET 0.04713 -0.12948 1.66229
						CHANNELS 3 Zrotation Yrotation Xrotation
						End Site
						{
							OFFSET 0.00000 -0.00000 0.85167
						}
					}
				}
			}
		}
	}
	JOINT RHipJoint
	{
		OFFSET 0 0 0
		CHANNELS 3 Zrotation Yrotation Xrotation
		JOINT RightUpLeg
		{
			OFFSET -3.13988 -1.57224 1.49786
			CHANNELS 3 Zrotation Yrotation Xrotation
			JOINT RightLeg
			{
				OFFSET -2.15006 -5.90725 0.00000
				CHANNELS 3 Zrotation Yrotation Xrotation
				JOINT RightFoot
				{
					OFFSET -2.34496 -6.44273 0.00000
					CHANNELS 3 Zrotation Yrotation Xrotation
					JOINT RightToeBase
					{
						OFFSET -0.08699 -0.23900 1.55223
						CHANNELS 3 Zrotation Yrotation Xrotation
						End Site
						{
							OFFSET -0.00000 -0.00000 0.80281
						}
					}
				}
			}
		}
	}
	JOINT LowerBack
	{
		OFFSET 0 0 0
		CHANNELS 3 Zrotation Yrotation Xrotation
		JOINT Spine
		{
			OFFSET 0.01292 1.96517 -0.16495
			CHANNELS 3 Zrotation Yrotation Xrotation
			JOINT Spine1
			{
				OFFSET 0.02122 1.88666 0.19706
				CHANNELS 3 Zrotation Yrotation Xrotation
				JOINT Neck
				{
					OFFSET 0 0 0
					CHANNELS 3 Zrotation Yrotation Xrotation
					JOINT Neck1
					{
						OFFSET -0.01683 1.81591 0.07903
						CHANNELS 3 Zrotation Yrotation Xrotation
						JOINT Head
						{
							OFFSET 0.00815 1.74013 -0.47700
							CHANNELS 3 Zrotation Yrotation Xrotation
							End Site
							{
								OFFSET -0.00204 1.83225 -0.16933
							}
						}
					}
				}
				JOINT LeftShoulder
				{
					OFFSET 0 0 0
					CHANNELS 3 Zrotation Yrotation Xrotation
					JOINT LeftArm
					{
						OFFSET 3.38482 1.41533 0.19802
						CHANNELS 3 Zrotation Yrotation Xrotation
						JOINT LeftForeArm
						{
							OFFSET 4.32712 -0.00000 0.00000
							CHANNELS 3 Zrotation Yrotation Xrotation
							JOINT LeftHand
							{
								OFFSET 3.28587 -0.00000 -0.00000
								CHANNELS 3 Zrotation Yrotation Xrotation
								JOINT LeftFingerBase
								{
									OFFSET 0 0 0
									CHANNELS 3 Zrotation Yrotation Xrotation
									JOINT LeftHandIndex1
									{
										OFFSET 0.43316 -0.00000 -0.00000
										CHANNELS 3 Zrotation Yrotation Xrotation
										End Site
										{
											OFFSET 0.34922 -0.00000 -0.00000
										}
									}
								}
								JOINT LThumb
								{
									OFFSET 0 0 0
									CHANNELS 3 Zrotation Yrotation Xrotation
									End Site
									{
										OFFSET 0.35456 -0.00000 0.35456
									}
								}
							}
						}
					}
				}
				JOINT RightShoulder
				{
					OFFSET 0 0 0
					CHANNELS 3 Zrotation Yrotation Xrotation
					JOINT RightArm
					{
						OFFSET -3.09725 1.62858 -0.14144
						CHANNELS 3 Zrotation Yrotation Xrotation
						JOINT RightForeArm
						{
							OFFSET -4.29104 -0.00000 0.00000
							CHANNELS 3 Zrotation Yrotation Xrotation
							JOINT RightHand
							{
								OFFSET -3.22720 -0.00000 -0.00000
								CHANNELS 3 Zrotation Yrotation Xrotation
								JOINT RightFingerBase
								{
									OFFSET 0 0 0
									CHANNELS 3 Zrotation Yrotation Xrotation
									JOINT RightHandIndex1
									{
										OFFSET -0.54362 -0.00000 -0.00000
										CHANNELS 3 Zrotation Yrotation Xrotation
										End Site
										{
											OFFSET -0.43828 -0.00000 -0.00000
										}
									}
								}
								JOINT RThumb
								{
									OFFSET 0 0 0
									CHANNELS 3 Zrotation Yrotation Xrotation
									End Site
									{
										OFFSET -0.44497 -0.00000 0.44497
									}
								}
							}
						}
					}
				}
			}
		}
	}
}
MOTION
Frames: 9
Frame Time: .0083333
-12.9987 14.2274 1.3499 -15.3768 80.8732 5.4230 0.0000 0.0000 0.0000 -15.6147 -20.6028 -47.8345 10.0049 17.4126 59.5047 -1.7735 -31.6782 -12.0832 0.3935 -4.0281 -11.1556 0.0000 0.0000 0.0000 24.2683 28.6914 -40.9392 -7.4955 -15.7354 50.7245 -2.4836 4.5233 -28.7859 -0.8627 5.9229 -16.5608 -0.7640 0.3307 17.7487 3.2995 0.9923 -8.5874 4.0324 0.9528 -20.4523 -7.1155 -7.7803 -22.3398 6.2806 -10.1188 23.0422 1.7899 -4.3151 11.9764 -0.0000 0.0000 0.0000 -77.6664 0.4039 35.0005 51.0349 -53.4045 -27.0029 -0.0000 -0.0000 4.2341 37.9771 26.4157 19.1518 -7.1250 0.0000 -0.0000 10.0065 61.9241 4.1422 -0.0000 0.0000 0.0000 59.2668 -15.7234 55.2396 -52.6660 54.0157 -28.3176 0.0000 0.0000 0.7484 -24.5253 -11.2469 5.0852 7.1250 -0.0000 -0.0000 2.3458 -42.2976 0.1565
-12.9290 14.2885 1.2619 -10.9414 76.6433 9.2701 0.0000 0.0000 0.0000 -17.1733 -17.0461 -45.8036 9.5094 17.1246 57.8358 -1.6217 -31.8784 -13.3356 0.4129 -4.1247 -11.4276 0.0000 0.0000 0.0000 24.2078 30.0289 -39.7954 -7.3957 -15.6563 50.3555 -2.1974 5.5693 -26.8529 -0.8946 6.0285 -16.8672 -1.3729 -0.1341 17.4394 3.2803 0.1752 -8.7427 4.6415 0.6783 -20.3830 -7.6414 -8.1474 -22.6186 6.9805 -10.7360 24.3251 2.0160 -4.5055 12.6671 -0.0000 -0.0000 0.0000 -76.3673 -3.6969 34.0414 55.4844 -54.9814 -30.6123 -0.0000 -0.0000 4.5863 38.0186 23.1991 17.1176 -7.1250 0.0000 -0.0000 10.2890 58.2302 3.3532 -0.0000 -0.0000 0.0000 57.0175 -16.7173 55.2773 -59.7815 56.2514 -34.1593 0.0000 0.0000 0.4854 -23.4686 -12.2351 5.2569 7.1250 -0.0000 -0.0000 3.4320 -43.2544 0.1480
-12.8506 14.3884 1.1749 -7.9025 72.4903 11.8157 0.0000 0.0000 0.0000 -18.8250 -13.7674 -43.7127 8.8863 16.7340 55.6960 -1.3890 -31.6253 -14.5531 0.4168 -4.1439 -11.4818 0.0000 0.0000 0.0000 23.9456 30.8537 -38.5765 -7.1130 -15.4263 49.3005 -1.8538 6.2628 -24.5056 -0.9658 6.2570 -17.5318 -2.1256 -0.7447 17.0095 3.2413 -0.8741 -9.0978 5.3854 0.3302 -20.4532 -7.7772 -8.2433 -22.4624 7.1257 -10.9839 25.6303 2.0569 -4.5808 13.2073 -0.0000 0.0000 0.0000 -74.5672 -7.5998 33.2221 60.6061 -56.4693 -34.8459 -0.0000 -0.0000 4.9014 38.8595 23.6693 17.9247 -7.1250 0.0000 -0.0000 11.3141 58.9973 3.9015 -0.0000 0.0000 0.0000 54.5287 -17.7376 55.5103 -68.0709 58.1026 -41.1298 0.0000 -0.0000 -0.1665 -25.1147 -10.6190 4.9369 7.1250 -0.0000 -0.0000 1.7457 -41.6720 0.1434
-12.7593 14.5313 1.0909 -6.8948 68.3041 12.1700 0.0000 0.0000 0.0000 -19.9882 -10.3795 -41.3117 8.1531 16.2307 53.1123 -1.0868 -30.9799 -15.7837 0.4106 -4.1132 -11.3954 0.0000 0.0000 0.0000 24.3739 31.2519 -36.6236 -6.6267 -15.0093 47.4481 -1.4204 7.9565 -21.3196 -0.5565 4.7785 -13.2780 -2.5257 -1.4399 16.6527 3.3867 -1.9096 -9.6895 5.9484 -0.0840 -20.3278 -7.8902 -8.3188 -22.3087 7.4336 -11.2825 26.9997 2.1519 -4.6506 13.8084 0.0000 0.0000 0.0000 -72.4409 -10.9248 32.3174 67.1209 -57.9267 -40.3240 -0.0000 -0.0000 5.4328 37.1682 21.7343 15.6822 -7.1250 0.0000 -0.0000 9.3404 56.3127 2.6072 0.0000 0.0000 0.0000 52.0019 -18.2859 56.0001 -76.2518 59.2736 -48.1227 0.0000 -0.0000 -0.8728 -26.3032 -9.8843 4.8500 7.1250 -0.0000 -0.0000 0.6164 -40.9784 0.0611
-12.6557 14.7241 1.0342 -5.8711 63.5861 12.5743 0.0000 0.0000 0.0000 -20.9788 -6.6074 -38.6722 7.2641 15.5503 49.8663 -0.7211 -29.7479 -16.8846 0.4236 -4.1773 -11.5760 0.0000 0.0000 0.0000 24.7238 31.8473 -34.5635 -6.0590 -14.4853 45.2180 -0.9744 8.9969 -17.7836 -0.2841 3.4279 -9.4725 -3.4523 -1.9837 16.0334 3.4441 -2.8899 -10.0492 6.8589 -0.3738 -20.2221 -8.0989 -8.3116 -21.9072 8.0176 -11.5287 28.0746 2.3944 -4.6847 14.2756 0.0000 -0.0000 0.0000 -70.3503 -13.1691 30.3426 74.0567 -59.0174 -46.2382 -0.0000 -0.0000 7.8312 39.0732 21.2180 16.3750 -7.1250 0.0000 -0.0000 11.5838 56.1722 3.2045 0.0000 -0.0000 0.0000 49.6941 -18.1085 56.4616 -83.1090 59.8198 -54.0358 0.0000 -0.0000 -1.4195 -28.0776 -9.4923 5.0276 7.1250 -0.0000 -0.0000 -0.9864 -40.7085 -0.1044
-12.5361 14.9787 0.9607 -4.6091 58.8029 13.0067 0.0000 0.0000 0.0000 -22.2597 -3.3111 -35.2688 6.2425 14.6593 45.9475 -0.3130 -27.9739 -17.9026 0.5114 -4.5836 -12.7247 0.0000 0.0000 0.0000 25.0326 31.1851 -32.0328 -5.2820 -13.6945 42.0272 -0.4907 10.0933 -13.4038 -0.1397 2.4086 -6.6364 -4.1343 -2.5317 15.6091 3.3244 -3.8475 -10.4606 7.4184 -0.6955 -20.2993 -8.5895 -8.3004 -21.0427 8.8062 -11.7738 29.0161 2.7881 -4.7423 14.6382 -0.0000 -0.0000 0.0000 -67.9462 -14.4588 29.1916 82.4288 -59.7823 -53.4479 -0.0000 -0.0000 7.5238 37.9277 19.4729 14.5621 -7.1250 0.0000 -0.0000 10.2569 53.8333 2.2457 -0.0000 -0.0000 0.0000 47.5229 -17.6274 57.1787 -88.9877 59.9961 -59.1233 0.0000 -0.0000 -2.3969 -30.6260 -8.9396 5.2561 7.1250 -0.0000 -0.0000 -3.2687 -40.3183 -0.3778
-12.3904 15.2869 0.8970 -3.4596 53.6151 13.0390 0.0000 0.0000 0.0000 -23.5444 -0.2561 -31.0801 5.1567 13.5581 41.4955 0.1567 -25.8943 -19.2709 0.6356 -5.1009 -14.1966 0.0000 0.0000 0.0000 25.4339 29.8607 -28.6444 -4.2991 -12.5481 37.6995 -0.0191 10.6843 -7.7879 -0.0481 1.4156 -3.8930 -4.7030 -2.8922 15.1521 3.0244 -4.5452 -10.7987 7.6030 -0.9457 -20.3058 -8.7600 -8.3859 -20.1766 8.9254 -12.1075 30.3393 2.8504 -4.8902 15.1120 0.0000 -0.0000 0.0000 -64.9790 -15.0975 28.7161 90.2954 -59.9997 -60.2558 -0.0000 -0.0000 7.6742 36.8535 20.5350 14.7312 -7.1250 0.0000 -0.0000 9.0305 54.8384 2.1955 0.0000 -0.0000 0.0000 46.6386 -16.3309 57.3922 -90.2288 59.9998 -60.1981 0.0000 -0.0000 -2.7280 -32.1779 -6.7935 4.2565 7.1250 -0.0000 -0.0000 -4.6408 -37.9541 -0.8071
-12.2133 15.6330 0.8584 -2.8605 47.8977 12.3089 0.0000 0.0000 0.0000 -24.4631 2.2139 -25.8063 3.8584 11.9696 35.6244 0.7336 -22.9657 -21.0565 0.5959 -4.9417 -13.7425 0.0000 0.0000 0.0000 26.2417 28.2080 -24.2884 -3.1453 -10.9266 32.0329 0.2764 10.1711 -0.7307 -0.0001 0.0555 -0.1524 -5.0654 -3.1207 14.8580 2.7734 -5.0047 -11.1752 7.6675 -1.0991 -20.5190 -8.5337 -8.2492 -19.2908 8.3969 -12.0836 32.1969 2.6647 -4.9220 15.7147 -0.0000 0.0000 0.0000 -62.1159 -14.4738 27.7755 96.2450 -59.8521 -65.4056 -0.0000 -0.0000 9.7339 36.1844 17.8162 12.6152 -7.1250 0.0000 -0.0000 8.3807 51.5013 1.3499 -0.0000 0.0000 0.0000 47.1798 -14.4035 58.2749 -88.9229 59.9956 -59.0672 0.0000 -0.0000 -3.9391 -36.7574 -5.9956 4.4612 7.1250 -0.0000 -0.0000 -8.5414 -37.3257 -1.6275
-12.0322 16.0140 0.8423 -2.7534 41.6981 11.1130 0.0000 0.0000 0.0000 -24.9242 3.0945 -19.7589 2.6366 10.0822 29.2432 2.0580 -17.0565 -26.7205 1.0899 -6.6348 -18.6378 0.0000 0.0000 0.0000 27.3726 26.4267 -19.5825 -2.0322 -8.9327 25.5852 0.1680 8.3844 7.5631 -0.0264 -1.0480 2.8808 -4.7867 -3.0541 14.0884 2.2635 -4.9002 -11.0611 6.9025 -1.1498 -20.4838 -8.4269 -8.0690 -18.0933 8.2339 -12.1068 34.0623 2.6558 -4.9509 16.3314 0.0000 -0.0000 0.0000 -59.4776 -13.2473 28.0060 101.4699 -59.4970 -69.9165 -0.0000 -0.0000 9.1435 37.4006 16.6895 12.3841 -7.1250 0.0000 -0.0000 9.6632 50.4075 1.2984 0.0000 -0.0000 0.0000 49.0220 -12.4749 58.8401 -86.6800 59.9583 -57.1252 0.0000 -0.0000 -4.5012 -37.3165 -5.2116 3.9608 7.1250 -0.0000 -0.0000 -8.9546 -36.3957 -1.9135
